<mxfile host="app.diagrams.net" modified="2021-01-30T15:01:15.609Z" agent="5.0 (Macintosh; Intel Mac OS X 11_0_1) AppleWebKit/537.36 (KHTML, like Gecko) Chrome/88.0.4324.96 Safari/537.36" etag="x0yQquIQmG7FVuYIcQK2" version="14.2.9" type="github">
  <diagram id="Vequn81dsmjh8z_NT6CR" name="Page-1">
    <mxGraphModel dx="2036" dy="739" grid="1" gridSize="10" guides="1" tooltips="1" connect="1" arrows="1" fold="1" page="1" pageScale="1" pageWidth="850" pageHeight="1100" math="0" shadow="0">
      <root>
        <mxCell id="0" />
        <mxCell id="1" parent="0" />
        <mxCell id="yx76Yaqws_WeJNhkI4FS-5" value="" style="rounded=1;arcSize=10;dashed=0;fillColor=none;gradientColor=none;strokeWidth=2;" parent="1" vertex="1">
          <mxGeometry x="30" y="30" width="1000" height="980" as="geometry" />
        </mxCell>
        <mxCell id="yx76Yaqws_WeJNhkI4FS-3" value="" style="rounded=1;arcSize=10;dashed=0;fillColor=none;gradientColor=none;strokeWidth=2;" parent="1" vertex="1">
          <mxGeometry x="180" y="90" width="760" height="880" as="geometry" />
        </mxCell>
        <mxCell id="yx76Yaqws_WeJNhkI4FS-4" value="" style="dashed=0;html=1;shape=mxgraph.aws3.virtual_private_cloud;fillColor=#F58536;gradientColor=none;dashed=0;" parent="1" vertex="1">
          <mxGeometry x="200" y="70" width="52" height="36" as="geometry" />
        </mxCell>
        <mxCell id="yx76Yaqws_WeJNhkI4FS-6" value="" style="dashed=0;html=1;shape=mxgraph.aws3.cloud;fillColor=#F58536;gradientColor=none;dashed=0;" parent="1" vertex="1">
          <mxGeometry x="84.5" y="10" width="52" height="36" as="geometry" />
        </mxCell>
        <mxCell id="yx76Yaqws_WeJNhkI4FS-8" value="" style="rounded=1;arcSize=10;dashed=0;fillColor=none;gradientColor=none;strokeWidth=2;" parent="1" vertex="1">
          <mxGeometry x="-350" y="80" width="200" height="200" as="geometry" />
        </mxCell>
        <mxCell id="yx76Yaqws_WeJNhkI4FS-9" value="" style="dashed=0;html=1;shape=mxgraph.aws3.cloud;fillColor=#F58536;gradientColor=none;dashed=0;" parent="1" vertex="1">
          <mxGeometry x="-330" y="60" width="52" height="36" as="geometry" />
        </mxCell>
        <mxCell id="yx76Yaqws_WeJNhkI4FS-12" style="edgeStyle=orthogonalEdgeStyle;rounded=0;orthogonalLoop=1;jettySize=auto;html=1;exitX=1;exitY=0.5;exitDx=0;exitDy=0;exitPerimeter=0;" parent="1" source="yx76Yaqws_WeJNhkI4FS-10" target="yx76Yaqws_WeJNhkI4FS-46" edge="1">
          <mxGeometry relative="1" as="geometry" />
        </mxCell>
        <mxCell id="yx76Yaqws_WeJNhkI4FS-10" value="jeonghyeon.kim" style="outlineConnect=0;dashed=0;verticalLabelPosition=bottom;verticalAlign=top;align=center;html=1;shape=mxgraph.aws3.route_53;fillColor=#F58536;gradientColor=none;" parent="1" vertex="1">
          <mxGeometry x="-280" y="127.25" width="70.5" height="85.5" as="geometry" />
        </mxCell>
        <mxCell id="yx76Yaqws_WeJNhkI4FS-37" style="edgeStyle=orthogonalEdgeStyle;rounded=0;orthogonalLoop=1;jettySize=auto;html=1;exitX=0.5;exitY=1;exitDx=0;exitDy=0;exitPerimeter=0;fontColor=#FF8000;" parent="1" source="yx76Yaqws_WeJNhkI4FS-11" target="yx76Yaqws_WeJNhkI4FS-33" edge="1">
          <mxGeometry relative="1" as="geometry">
            <Array as="points">
              <mxPoint x="238" y="410" />
              <mxPoint x="472" y="410" />
            </Array>
          </mxGeometry>
        </mxCell>
        <mxCell id="yx76Yaqws_WeJNhkI4FS-38" value="&lt;font color=&quot;#000000&quot;&gt;sample.jeonghyeon.kim&lt;br&gt;&lt;/font&gt;" style="edgeLabel;html=1;align=center;verticalAlign=middle;resizable=0;points=[];fontColor=#FF8000;" parent="yx76Yaqws_WeJNhkI4FS-37" vertex="1" connectable="0">
          <mxGeometry x="-0.0902" relative="1" as="geometry">
            <mxPoint x="151.83" y="36.67" as="offset" />
          </mxGeometry>
        </mxCell>
        <mxCell id="yx76Yaqws_WeJNhkI4FS-39" style="edgeStyle=orthogonalEdgeStyle;rounded=0;orthogonalLoop=1;jettySize=auto;html=1;exitX=0.5;exitY=1;exitDx=0;exitDy=0;exitPerimeter=0;fontColor=#FF8000;" parent="1" source="yx76Yaqws_WeJNhkI4FS-11" target="yx76Yaqws_WeJNhkI4FS-34" edge="1">
          <mxGeometry relative="1" as="geometry">
            <Array as="points">
              <mxPoint x="238" y="410" />
              <mxPoint x="620" y="410" />
            </Array>
          </mxGeometry>
        </mxCell>
        <mxCell id="yx76Yaqws_WeJNhkI4FS-40" value="&lt;font color=&quot;#000000&quot;&gt;jupyter.jeonghyeon.kim&lt;/font&gt;" style="edgeLabel;html=1;align=center;verticalAlign=middle;resizable=0;points=[];fontColor=#FF8000;" parent="yx76Yaqws_WeJNhkI4FS-39" vertex="1" connectable="0">
          <mxGeometry x="0.5974" relative="1" as="geometry">
            <mxPoint y="8.07" as="offset" />
          </mxGeometry>
        </mxCell>
        <mxCell id="yx76Yaqws_WeJNhkI4FS-44" style="edgeStyle=orthogonalEdgeStyle;rounded=0;orthogonalLoop=1;jettySize=auto;html=1;exitX=0.5;exitY=1;exitDx=0;exitDy=0;exitPerimeter=0;entryX=0;entryY=0.5;entryDx=0;entryDy=0;fontColor=#FF8000;" parent="1" source="yx76Yaqws_WeJNhkI4FS-11" target="yx76Yaqws_WeJNhkI4FS-36" edge="1">
          <mxGeometry relative="1" as="geometry" />
        </mxCell>
        <mxCell id="yx76Yaqws_WeJNhkI4FS-45" value="&lt;font color=&quot;#000000&quot;&gt;jeonghyeon.kim&lt;/font&gt;" style="edgeLabel;html=1;align=center;verticalAlign=middle;resizable=0;points=[];fontColor=#FF8000;" parent="yx76Yaqws_WeJNhkI4FS-44" vertex="1" connectable="0">
          <mxGeometry x="0.2455" y="-1" relative="1" as="geometry">
            <mxPoint y="-1" as="offset" />
          </mxGeometry>
        </mxCell>
        <mxCell id="yx76Yaqws_WeJNhkI4FS-11" value="&lt;div&gt;basic-load-balancer&lt;/div&gt;&lt;div&gt;&lt;br&gt;&lt;/div&gt;" style="outlineConnect=0;dashed=0;verticalLabelPosition=bottom;verticalAlign=top;align=center;html=1;shape=mxgraph.aws3.elastic_load_balancing;fillColor=#F58536;gradientColor=none;" parent="1" vertex="1">
          <mxGeometry x="200" y="123.5" width="76.5" height="93" as="geometry" />
        </mxCell>
        <mxCell id="yx76Yaqws_WeJNhkI4FS-14" style="edgeStyle=orthogonalEdgeStyle;rounded=0;orthogonalLoop=1;jettySize=auto;html=1;exitX=1;exitY=0.5;exitDx=0;exitDy=0;" parent="1" source="yx76Yaqws_WeJNhkI4FS-13" target="yx76Yaqws_WeJNhkI4FS-10" edge="1">
          <mxGeometry relative="1" as="geometry" />
        </mxCell>
        <mxCell id="yx76Yaqws_WeJNhkI4FS-13" value="Internet" style="aspect=fixed;perimeter=ellipsePerimeter;html=1;align=center;shadow=0;dashed=0;spacingTop=3;image;image=img/lib/active_directory/internet_cloud.svg;" parent="1" vertex="1">
          <mxGeometry x="-600" y="154.25" width="50" height="31.5" as="geometry" />
        </mxCell>
        <mxCell id="yx76Yaqws_WeJNhkI4FS-21" value="" style="group" parent="1" vertex="1" connectable="0">
          <mxGeometry x="330" y="100" width="270" height="130" as="geometry" />
        </mxCell>
        <mxCell id="yx76Yaqws_WeJNhkI4FS-18" value="&#xa;&#xa;&#xa;&#xa;&#xa;&#xa;AZ : us-east-2a" style="rounded=1;arcSize=10;dashed=0;fillColor=none;gradientColor=none;strokeWidth=2;fontColor=#FF8000;" parent="yx76Yaqws_WeJNhkI4FS-21" vertex="1">
          <mxGeometry y="20" width="270" height="110" as="geometry" />
        </mxCell>
        <mxCell id="yx76Yaqws_WeJNhkI4FS-19" value="" style="dashed=0;html=1;shape=mxgraph.aws3.permissions;fillColor=#D9A741;gradientColor=none;dashed=0;fontColor=#FF8000;" parent="yx76Yaqws_WeJNhkI4FS-21" vertex="1">
          <mxGeometry x="20" width="30" height="35" as="geometry" />
        </mxCell>
        <mxCell id="yx76Yaqws_WeJNhkI4FS-22" value="" style="group" parent="1" vertex="1" connectable="0">
          <mxGeometry x="325" y="240" width="280" height="150" as="geometry" />
        </mxCell>
        <mxCell id="yx76Yaqws_WeJNhkI4FS-23" value="&#xa;&#xa;&#xa;&#xa;&#xa;&#xa;AZ : us-east-2b" style="rounded=1;arcSize=10;dashed=0;fillColor=none;gradientColor=none;strokeWidth=2;fontColor=#FF8000;" parent="yx76Yaqws_WeJNhkI4FS-22" vertex="1">
          <mxGeometry y="23.076923076923073" width="280" height="126.9230769230769" as="geometry" />
        </mxCell>
        <mxCell id="yx76Yaqws_WeJNhkI4FS-24" value="" style="dashed=0;html=1;shape=mxgraph.aws3.permissions;fillColor=#D9A741;gradientColor=none;dashed=0;fontColor=#FF8000;" parent="yx76Yaqws_WeJNhkI4FS-22" vertex="1">
          <mxGeometry x="20.74074074074074" width="31.11111111111111" height="40.38461538461538" as="geometry" />
        </mxCell>
        <mxCell id="yx76Yaqws_WeJNhkI4FS-50" value="" style="outlineConnect=0;dashed=0;verticalLabelPosition=bottom;verticalAlign=top;align=center;html=1;shape=mxgraph.aws3.rds;fillColor=#2E73B8;gradientColor=none;fontColor=#FF8000;" parent="yx76Yaqws_WeJNhkI4FS-22" vertex="1">
          <mxGeometry x="95" y="44.5" width="72" height="81" as="geometry" />
        </mxCell>
        <mxCell id="yx76Yaqws_WeJNhkI4FS-58" style="edgeStyle=orthogonalEdgeStyle;rounded=0;orthogonalLoop=1;jettySize=auto;html=1;exitX=1;exitY=0.5;exitDx=0;exitDy=0;exitPerimeter=0;fontColor=#FF8000;" parent="yx76Yaqws_WeJNhkI4FS-22" source="yx76Yaqws_WeJNhkI4FS-57" target="yx76Yaqws_WeJNhkI4FS-50" edge="1">
          <mxGeometry relative="1" as="geometry" />
        </mxCell>
        <mxCell id="yx76Yaqws_WeJNhkI4FS-57" value="" style="outlineConnect=0;dashed=0;verticalLabelPosition=bottom;verticalAlign=top;align=center;html=1;shape=mxgraph.aws3.elastic_network_interface;fillColor=#F58534;gradientColor=none;fontColor=#FF8000;" parent="yx76Yaqws_WeJNhkI4FS-22" vertex="1">
          <mxGeometry x="1.7999999999999998" y="48.999999999999964" width="69" height="72" as="geometry" />
        </mxCell>
        <mxCell id="yx76Yaqws_WeJNhkI4FS-28" value="" style="group" parent="1" vertex="1" connectable="0">
          <mxGeometry x="330" y="440" width="460" height="460" as="geometry" />
        </mxCell>
        <mxCell id="yx76Yaqws_WeJNhkI4FS-29" value="&#xa;&#xa;&#xa;&#xa;&#xa;&#xa;&#xa;&#xa;&#xa;&#xa;&#xa;&#xa;&#xa;&#xa;&#xa;&#xa;&#xa;&#xa;&#xa;&#xa;&#xa;&#xa;&#xa;&#xa;&#xa;&#xa;&#xa;&#xa;AZ : us-east-2c" style="rounded=1;arcSize=10;dashed=0;fillColor=none;gradientColor=none;strokeWidth=2;fontColor=#FF8000;" parent="yx76Yaqws_WeJNhkI4FS-28" vertex="1">
          <mxGeometry y="28.75" width="460" height="431.25" as="geometry" />
        </mxCell>
        <mxCell id="yx76Yaqws_WeJNhkI4FS-30" value="" style="dashed=0;html=1;shape=mxgraph.aws3.permissions;fillColor=#D9A741;gradientColor=none;dashed=0;fontColor=#FF8000;" parent="yx76Yaqws_WeJNhkI4FS-28" vertex="1">
          <mxGeometry x="32.857142857142854" width="49.285714285714285" height="50.3125" as="geometry" />
        </mxCell>
        <mxCell id="yx76Yaqws_WeJNhkI4FS-31" value="" style="rounded=1;arcSize=10;dashed=0;fillColor=none;gradientColor=none;strokeWidth=2;fontColor=#FF8000;" parent="yx76Yaqws_WeJNhkI4FS-28" vertex="1">
          <mxGeometry x="32.86" y="170" width="407.14" height="249.37" as="geometry" />
        </mxCell>
        <mxCell id="yx76Yaqws_WeJNhkI4FS-32" value="&lt;font color=&quot;#ffffff&quot;&gt;ec2&lt;/font&gt;" style="dashed=0;html=1;shape=mxgraph.aws3.instance;fillColor=#F58536;gradientColor=none;dashed=0;fontColor=#FF8000;" parent="yx76Yaqws_WeJNhkI4FS-28" vertex="1">
          <mxGeometry x="65.71428571428571" y="141.875" width="65.71428571428571" height="58.9375" as="geometry" />
        </mxCell>
        <mxCell id="yx76Yaqws_WeJNhkI4FS-33" value="&lt;font color=&quot;#000000&quot;&gt;KMP Sample&lt;/font&gt;" style="rounded=1;whiteSpace=wrap;html=1;fontColor=#FF8000;" parent="yx76Yaqws_WeJNhkI4FS-28" vertex="1">
          <mxGeometry x="82.14" y="220" width="120" height="60" as="geometry" />
        </mxCell>
        <mxCell id="yx76Yaqws_WeJNhkI4FS-34" value="&lt;font color=&quot;#000000&quot;&gt;Jupyter&lt;/font&gt;" style="rounded=1;whiteSpace=wrap;html=1;fontColor=#FF8000;" parent="yx76Yaqws_WeJNhkI4FS-28" vertex="1">
          <mxGeometry x="230" y="220" width="120" height="60" as="geometry" />
        </mxCell>
        <mxCell id="yx76Yaqws_WeJNhkI4FS-35" value="&lt;font color=&quot;#000000&quot;&gt;Slackbot-aya&lt;/font&gt;" style="rounded=1;whiteSpace=wrap;html=1;fontColor=#FF8000;" parent="yx76Yaqws_WeJNhkI4FS-28" vertex="1">
          <mxGeometry x="230" y="320" width="120" height="60" as="geometry" />
        </mxCell>
        <mxCell id="yx76Yaqws_WeJNhkI4FS-36" value="&lt;font color=&quot;#000000&quot;&gt;Nginx&lt;/font&gt;" style="rounded=1;whiteSpace=wrap;html=1;fontColor=#FF8000;" parent="yx76Yaqws_WeJNhkI4FS-28" vertex="1">
          <mxGeometry x="82.14" y="320" width="120" height="60" as="geometry" />
        </mxCell>
        <mxCell id="yx76Yaqws_WeJNhkI4FS-56" style="edgeStyle=orthogonalEdgeStyle;rounded=0;orthogonalLoop=1;jettySize=auto;html=1;exitX=0.5;exitY=1;exitDx=0;exitDy=0;exitPerimeter=0;entryX=0.5;entryY=0;entryDx=0;entryDy=0;entryPerimeter=0;fontColor=#FF8000;" parent="yx76Yaqws_WeJNhkI4FS-28" source="yx76Yaqws_WeJNhkI4FS-53" target="yx76Yaqws_WeJNhkI4FS-32" edge="1">
          <mxGeometry relative="1" as="geometry" />
        </mxCell>
        <mxCell id="yx76Yaqws_WeJNhkI4FS-53" value="" style="outlineConnect=0;dashed=0;verticalLabelPosition=bottom;verticalAlign=top;align=center;html=1;shape=mxgraph.aws3.elastic_network_interface;fillColor=#F58534;gradientColor=none;fontColor=#FF8000;" parent="yx76Yaqws_WeJNhkI4FS-28" vertex="1">
          <mxGeometry x="64.07" y="50" width="69" height="72" as="geometry" />
        </mxCell>
        <mxCell id="yx76Yaqws_WeJNhkI4FS-46" value="" style="outlineConnect=0;dashed=0;verticalLabelPosition=bottom;verticalAlign=top;align=center;html=1;shape=mxgraph.aws3.certificate_manager;fillColor=#759C3E;gradientColor=none;fontColor=#FF8000;" parent="1" vertex="1">
          <mxGeometry x="60" y="139.25" width="76.5" height="61.5" as="geometry" />
        </mxCell>
        <mxCell id="yx76Yaqws_WeJNhkI4FS-49" style="edgeStyle=orthogonalEdgeStyle;rounded=0;orthogonalLoop=1;jettySize=auto;html=1;fontColor=#FF8000;" parent="1" source="yx76Yaqws_WeJNhkI4FS-46" target="yx76Yaqws_WeJNhkI4FS-11" edge="1">
          <mxGeometry relative="1" as="geometry">
            <mxPoint x="133.5" y="169.9999999999999" as="sourcePoint" />
          </mxGeometry>
        </mxCell>
        <mxCell id="yx76Yaqws_WeJNhkI4FS-52" style="edgeStyle=orthogonalEdgeStyle;rounded=0;orthogonalLoop=1;jettySize=auto;html=1;exitX=0;exitY=0.5;exitDx=0;exitDy=0;entryX=1;entryY=0.5;entryDx=0;entryDy=0;entryPerimeter=0;fontColor=#FF8000;" parent="1" source="yx76Yaqws_WeJNhkI4FS-35" target="yx76Yaqws_WeJNhkI4FS-50" edge="1">
          <mxGeometry relative="1" as="geometry">
            <Array as="points">
              <mxPoint x="540" y="790" />
              <mxPoint x="540" y="325" />
            </Array>
          </mxGeometry>
        </mxCell>
        <mxCell id="yx76Yaqws_WeJNhkI4FS-55" style="edgeStyle=orthogonalEdgeStyle;rounded=0;orthogonalLoop=1;jettySize=auto;html=1;exitX=1;exitY=0.5;exitDx=0;exitDy=0;exitPerimeter=0;fontColor=#FF8000;" parent="1" source="yx76Yaqws_WeJNhkI4FS-54" target="yx76Yaqws_WeJNhkI4FS-53" edge="1">
          <mxGeometry relative="1" as="geometry" />
        </mxCell>
        <mxCell id="yx76Yaqws_WeJNhkI4FS-61" value="&lt;font color=&quot;#000000&quot;&gt;ssh&lt;/font&gt;" style="edgeLabel;html=1;align=center;verticalAlign=middle;resizable=0;points=[];fontColor=#FF8000;" parent="yx76Yaqws_WeJNhkI4FS-55" vertex="1" connectable="0">
          <mxGeometry x="-0.7215" y="1" relative="1" as="geometry">
            <mxPoint as="offset" />
          </mxGeometry>
        </mxCell>
        <mxCell id="yx76Yaqws_WeJNhkI4FS-60" style="edgeStyle=orthogonalEdgeStyle;rounded=0;orthogonalLoop=1;jettySize=auto;html=1;exitX=0.5;exitY=0;exitDx=0;exitDy=0;exitPerimeter=0;entryX=0;entryY=0.5;entryDx=0;entryDy=0;entryPerimeter=0;fontColor=#FF8000;" parent="1" source="yx76Yaqws_WeJNhkI4FS-54" target="yx76Yaqws_WeJNhkI4FS-57" edge="1">
          <mxGeometry relative="1" as="geometry" />
        </mxCell>
        <mxCell id="yx76Yaqws_WeJNhkI4FS-62" value="&lt;font color=&quot;#000000&quot;&gt;mysql&lt;/font&gt;" style="edgeLabel;html=1;align=center;verticalAlign=middle;resizable=0;points=[];fontColor=#FF8000;" parent="yx76Yaqws_WeJNhkI4FS-60" vertex="1" connectable="0">
          <mxGeometry x="-0.7927" y="-1" relative="1" as="geometry">
            <mxPoint as="offset" />
          </mxGeometry>
        </mxCell>
        <mxCell id="yx76Yaqws_WeJNhkI4FS-54" value="" style="fontColor=#0066CC;verticalAlign=top;verticalLabelPosition=bottom;labelPosition=center;align=center;html=1;outlineConnect=0;fillColor=#CCCCCC;strokeColor=#6881B3;gradientColor=none;gradientDirection=north;strokeWidth=2;shape=mxgraph.networks.terminal;" parent="1" vertex="1">
          <mxGeometry x="-270" y="493.5" width="80" height="65" as="geometry" />
        </mxCell>
      </root>
    </mxGraphModel>
  </diagram>
</mxfile>
